<svg width="47" height="47" viewBox="0 0 47 47" fill="none" xmlns="http://www.w3.org/2000/svg">
<g clip-path="url(#clip0_1563_5389)">
<path d="M47 12.8183V27.367C46.9884 27.926 46.7582 28.4582 46.3588 28.8494C45.9594 29.2406 45.4226 29.4598 44.8635 29.4598C44.3044 29.4598 43.7676 29.2406 43.3682 28.8494C42.9688 28.4582 42.7386 27.926 42.727 27.367V12.8183C42.7271 12.5377 42.672 12.2599 42.5647 12.0007C42.4574 11.7415 42.3 11.5059 42.1017 11.3076C41.9033 11.1092 41.6678 10.9518 41.4086 10.8445C41.1493 10.7372 40.8715 10.6821 40.591 10.6822H25.7889C24.7352 10.679 23.6986 10.4161 22.7707 9.91674C21.8429 9.41735 21.0524 8.69689 20.4695 7.81914L18.7152 5.23443C18.5217 4.94049 18.2585 4.69892 17.9491 4.5312C17.6397 4.36348 17.2937 4.2748 16.9418 4.27306H6.41267C6.13189 4.2727 5.85379 4.32768 5.59426 4.43485C5.33474 4.54203 5.09888 4.6993 4.90017 4.89767C4.70146 5.09605 4.54379 5.33164 4.43617 5.59099C4.32855 5.85033 4.2731 6.12834 4.27298 6.40913V34.1827C4.27322 34.7491 4.49834 35.2923 4.89887 35.6928C5.2994 36.0934 5.84257 36.3185 6.40901 36.3187H25.636C26.195 36.3303 26.7272 36.5605 27.1184 36.9599C27.5096 37.3593 27.7287 37.8961 27.7287 38.4552C27.7287 39.0144 27.5096 39.5512 27.1184 39.9506C26.7272 40.35 26.195 40.5802 25.636 40.5918H6.40901C4.70923 40.5918 3.07908 39.9165 1.87715 38.7146C0.675233 37.5126 0 35.8825 0 34.1827V6.40913C0 4.70932 0.675233 3.07914 1.87715 1.87719C3.07908 0.675246 4.70923 0 6.40901 0H16.9381C17.9918 0.0031554 19.0285 0.266066 19.9563 0.765455C20.8842 1.26484 21.6746 1.9853 22.2576 2.86305L24.0127 5.44776C24.2065 5.74215 24.47 5.984 24.78 6.15175C25.0899 6.3195 25.4365 6.40792 25.7889 6.40913H40.5937C41.4354 6.40913 42.2688 6.57491 43.0464 6.897C43.8239 7.21909 44.5305 7.69118 45.1256 8.28632C45.7207 8.88147 46.1928 9.588 46.5149 10.3656C46.837 11.1432 47.0027 11.9766 47.0027 12.8183H47ZM40.1213 30.5505C39.726 30.1477 39.1877 29.9173 38.6234 29.9094C38.0591 29.9015 37.5145 30.1168 37.1082 30.5084L32.6859 34.7805C32.3784 35.0768 32.1668 35.4585 32.0783 35.8763C31.9899 36.2941 32.0287 36.7288 32.1897 37.1243C32.3507 37.5198 32.6266 37.858 32.9818 38.0952C33.3369 38.3323 33.755 38.4576 34.182 38.4548H36.318V44.8639C36.3296 45.4229 36.5598 45.9551 36.9592 46.3463C37.3586 46.7376 37.8954 46.9567 38.4545 46.9567C39.0136 46.9567 39.5504 46.7376 39.9498 46.3463C40.3492 45.9551 40.5794 45.4229 40.591 44.8639V38.4548H42.727C43.1487 38.4573 43.5618 38.3349 43.914 38.1031C44.2663 37.8712 44.5421 37.5403 44.7065 37.1519C44.871 36.7636 44.9169 36.3353 44.8384 35.9209C44.7598 35.5066 44.5604 35.1247 44.2652 34.8236L40.1213 30.5505Z" fill="#BCA8E9"/>
</g>
<defs>
<clipPath id="clip0_1563_5389">
<rect width="47" height="47" fill="white"/>
</clipPath>
</defs>
</svg>
